PathFileType	4	(X/Y/Z)	/Users/mathieubourgeois/Desktop/Analyse/Traitement/Sujet_05/Data/Transformed_Sujet_05_velo_100.trc
DataRate	CameraRate	NumFrames	NumMarkers	Units	OrigDataRate	OrigDataStartFrame	OrigNumFrames
120.000000	120.000000	4	36	mm	120.000000	1683	1924
Frame#	Time	RFHD			RANE			STRN			LANI			LKNE			T10			RHUM			RWRB			C7			LFWT			LTOE			RTOE			LWRA			LBWT			RBWT			RFWT			LKNI			RKNI			RKNE			LANE			RANI			LHEE			RHEE			LHUM			LRAD			RRAD			RWRA			LWRB			LFHD			LBHD			RBHD			RSHO			LSHO			CLAV			LCAR			RCAR			
		X1	Y1	Z1	X2	Y2	Z2	X3	Y3	Z3	X4	Y4	Z4	X5	Y5	Z5	X6	Y6	Z6	X7	Y7	Z7	X8	Y8	Z8	X9	Y9	Z9	X10	Y10	Z10	X11	Y11	Z11	X12	Y12	Z12	X13	Y13	Z13	X14	Y14	Z14	X15	Y15	Z15	X16	Y16	Z16	X17	Y17	Z17	X18	Y18	Z18	X19	Y19	Z19	X20	Y20	Z20	X21	Y21	Z21	X22	Y22	Z22	X23	Y23	Z23	X24	Y24	Z24	X25	Y25	Z25	X26	Y26	Z26	X27	Y27	Z27	X28	Y28	Z28	X29	Y29	Z29	X30	Y30	Z30	X31	Y31	Z31	X32	Y32	Z32	X33	Y33	Z33	X34	Y34	Z34	X35	Y35	Z35	X36	Y36	Z36	

1684	14.025	139.8323211669922	1355.023193359375	132.6467895507812	-152.9168243408203	298.8920593261719	202.7200775146484	-200.0954132080078	1146.733276367188	35.13499832153311	-318.4944763183594	552.2659912109375	-61.60569381713874	-80.4760055541992	830.9520874023438	-168.1343536376954	-333.0934753417969	1348.775146484375	46.57027435302722	30.15575981140134	1039.5205078125	203.6363525390624	243.6285705566406	892.9957275390625	251.764404296875	-105.6841583251953	1416.830200195312	36.91794204711904	-366.66357421875	1073.839477539062	-74.37507629394543	-257.14306640625	387.1405944824219	-80.27837371826178	21.35510253906248	204.06005859375	159.7125854492188	281.5459594726562	941.448486328125	-150.05078125	-537.02783203125	1100.1865234375	1.142981767654286	-517.645751953125	1104.044799804688	138.6004028320311	-348.89892578125	1059.090942382812	171.7263946533202	-79.78337097167967	802.4749145507812	-62.7146835327149	-121.4295806884766	660.496337890625	122.384666442871	-145.8538818359375	699.29052734375	227.0729064941405	-341.6746826171875	567.6903076171875	-141.0296783447266	-115.7764053344727	309.1895446777344	123.0813903808593	-408.0294799804688	571.1475830078125	-95.45034027099618	-208.2776794433594	275.2714233398438	155.9608459472656	31.01561164855959	1053.911010742188	-143.4282379150391	77.90660095214847	1085.476318359375	-186.9255981445313	67.91380310058591	1071.019653320312	256.8772277832031	275.1299438476562	937.9026489257812	202.6341094970703	249.4130401611328	890.4041748046875	-186.38623046875	156.5134582519531	1354.391723632812	-13.4390020370484	37.59004592895509	1449.509765625	-33.30937194824227	16.33319854736327	1474.064086914062	99.27986907958976	-32.05585861206057	1328.67822265625	187.7629852294921	-66.36779022216795	1335.605224609375	-114.8966445922853	-82.15815734863281	1272.954956054688	40.99123764038077	326.3199768066406	940.5151977539062	-224.6548309326172	324.9321289062499	927.4651489257812	289.1238708496094	
1685	14.03333333333333	140.4636840820312	1356.052368164062	129.8934631347656	-163.0008697509766	287.7578735351562	202.7478637695312	-199.3739166259766	1146.9462890625	34.16969299316397	-311.5581970214844	564.9076538085938	-57.38746261596687	-74.85556793212889	844.3821411132812	-169.1051635742188	-332.72021484375	1348.896606445312	46.97393417358386	30.29969024658201	1039.447021484375	203.1614074707031	243.6726989746093	892.8236694335938	251.9147033691406	-105.6503295898438	1417.22705078125	35.20040893554678	-366.6686096191406	1073.97265625	-73.55792999267589	-244.2809600830078	400.9477844238281	-80.45346832275396	9.394038200378398	189.4730682373047	159.7366943359375	281.233642578125	941.6837768554688	-150.0342559814453	-536.4949951171875	1100.481201171875	2.756032705306874	-516.4320068359375	1103.84423828125	140.2394561767577	-347.7888488769531	1057.95751953125	172.0834655761718	-65.94031524658202	819.7264404296875	-63.65906906127935	-132.7703094482422	649.908935546875	121.7699813842773	-157.6108093261719	688.6484375	226.5793151855468	-333.1356201171875	579.5615234375	-138.9259643554688	-125.0986251831055	298.1153869628906	123.4554824829101	-398.3792114257812	581.277099609375	-92.82175445556649	-218.3923950195313	265.7608032226562	155.0240631103515	30.32947921752931	1053.7802734375	-144.0102691650391	76.69572448730472	1085.084594726562	-188.1532440185547	68.0154113769531	1070.923095703125	256.4464721679687	275.2648010253906	937.743896484375	202.8317413330078	249.2546539306641	890.5172729492188	-186.2994079589844	156.5265197753906	1355.133178710938	-16.26861763000495	37.53211975097657	1450.153076171875	-35.83970260620125	16.84637641906737	1474.961059570312	96.75858306884757	-31.0808963775635	1328.918212890625	186.4446258544921	-66.98341369628905	1335.61083984375	-116.7914962768556	-81.65589141845703	1273.424438476562	39.40562438964835	326.1625671386719	940.4978637695312	-224.5939636230469	325.0302734374999	927.23486328125	289.3727722167969	
1686	14.04166666666667	141.2046203613281	1357.160888671875	127.2832565307616	-174.2554016113282	278.3141174316406	202.6415405273437	-198.4450378417969	1147.336059570312	33.18617630004874	-300.5213012695312	575.14111328125	-55.48308944702156	-69.71544647216795	857.6826782226562	-169.7558746337891	-332.1304931640625	1349.205444335938	47.49223709106433	30.61684989929197	1039.378784179688	202.6761016845703	243.8934783935547	892.6322021484375	251.9856262207031	-105.3521499633789	1417.67138671875	33.71532821655263	-366.5411071777344	1074.682983398438	-72.71278381347668	-227.1776123046875	415.0618896484375	-81.17967224121099	-3.932274580001851	175.8762817382812	159.7199249267578	281.011962890625	941.8397216796875	-150.1050567626953	-535.9285278320312	1101.153930664062	4.021848678588734	-515.428955078125	1104.024169921875	141.5406494140624	-346.9564819335938	1057.135620117188	172.236846923828	-64.73512268066405	831.2481079101562	-63.44759750366217	-145.0892791748047	641.1148071289062	121.3365478515624	-169.1593170166016	679.7232666015625	225.7907714843749	-323.7820129394531	590.2396850585938	-136.4801025390626	-135.2364196777344	288.5437316894531	123.7955551147461	-389.680908203125	590.0364379882812	-89.36048889160165	-229.3882293701172	258.0346984863281	154.1227722167968	29.87154388427736	1053.769409179688	-144.5481262207032	76.40540313720706	1084.850341796875	-188.6312408447266	68.29596710205075	1070.843017578125	255.9946136474609	275.5236511230469	937.5507202148438	202.9355163574218	249.1870727539063	890.6368408203125	-186.2774963378907	156.6908721923828	1356.015625	-18.97890281677252	37.50951385498048	1450.83642578125	-38.21773147583016	17.34766006469725	1475.900634765625	94.39987182617179	-30.04264068603518	1329.064697265625	184.7761840820312	-67.32012939453124	1335.7041015625	-118.4395065307618	-80.89822387695312	1274.03076171875	37.92691802978507	326.1089782714844	940.4151611328125	-224.5948944091797	325.2391967773437	927.018310546875	289.5076293945312	
1687	14.05	142.0998840332031	1358.362915039062	124.8462905883788	-186.8188629150391	270.6551818847656	202.561050415039	-197.5927276611328	1147.873413085938	32.22626876831045	-288.9085388183594	584.3661499023438	-52.86241531372077	-65.44046020507811	871.6113891601562	-169.2167205810547	-331.3427124023438	1349.669799804688	47.99444961547839	31.03336906433103	1039.341552734375	202.1820373535156	244.16064453125	892.4700317382812	251.9931640625	-104.7413177490234	1418.137817382812	32.39088821411123	-366.4437255859375	1075.714111328125	-71.82740783691418	-213.9078216552734	425.2415771484375	-81.17376708984381	-18.53541374206545	163.4911499023438	159.6086883544922	280.9397888183594	941.9775390625	-150.2989196777344	-535.5650024414062	1102.447631835938	5.357703685760365	-514.6939086914062	1104.583374023438	142.4333038330077	-346.4613952636719	1056.690307617188	172.4295349121093	-61.12041473388671	845.6456909179688	-64.95807647705085	-156.4081420898438	633.6752319335938	120.3336944580078	-180.3213043212891	672.2714233398438	225.0092315673828	-313.5914306640625	599.5086059570312	-133.9502410888672	-146.4718627929688	280.3204650878906	124.0820541381836	-379.2784423828125	596.83447265625	-86.42654418945321	-241.3428955078125	251.9978179931641	153.429458618164	29.70312881469728	1053.88623046875	-145.0235290527344	76.17520141601565	1084.80322265625	-189.3921813964844	68.69817352294919	1070.80322265625	255.591079711914	275.8446655273438	937.3569946289062	202.9282989501953	249.191650390625	890.6605834960938	-186.3302612304688	157.0064239501953	1356.974975585938	-21.52168846130377	37.64130020141602	1451.538330078125	-40.44871139526376	17.96400642395018	1476.808959960938	92.16697692871085	-28.68000411987307	1329.32421875	183.4094238281249	-67.29467010498045	1335.937622070312	-119.9048080444337	-79.95174407958984	1274.65283203125	36.59041213989249	325.9858093261719	940.4232788085938	-224.5160522460938	325.5183105468749	926.8070068359375	289.52734375	
